<svg width="24" height="24" viewBox="0 0 24 24" fill="none" xmlns="http://www.w3.org/2000/svg">
<path d="M23.554 6.525C23.553 6.288 23.55 6.051 23.543 5.814C23.529 5.298 23.499 4.777 23.407 4.267C23.314 3.749 23.162 3.267 22.922 2.796C22.687 2.334 22.379 1.91 22.012 1.544C21.645 1.177 21.222 0.87 20.759 0.634C20.288 0.394 19.806 0.243 19.289 0.149C18.779 0.0569997 18.258 0.027 17.742 0.013C17.505 0.00700001 17.268 0.00399986 17.031 0.00199986C16.75 -1.45053e-07 16.468 0 16.187 0H7.369C7.088 0 6.806 -1.45053e-07 6.525 0.00199986C6.288 0.00299986 6.051 0.00600001 5.814 0.013C5.298 0.027 4.777 0.0569997 4.267 0.149C3.749 0.242 3.267 0.394 2.797 0.634C2.335 0.869 1.911 1.177 1.544 1.544C1.177 1.911 0.870001 2.334 0.634001 2.796C0.394001 3.267 0.242 3.749 0.149 4.267C0.0570002 4.777 0.0270005 5.298 0.0130005 5.814C0.00700049 6.051 0.00400081 6.288 0.00200081 6.525C8.08621e-07 6.806 0 7.088 0 7.369V16.187C0 16.468 8.08621e-07 16.75 0.00200081 17.031C0.00300081 17.268 0.00600049 17.505 0.0130005 17.742C0.0270005 18.258 0.0570002 18.779 0.149 19.289C0.242 19.807 0.394001 20.289 0.634001 20.76C0.869001 21.222 1.177 21.646 1.544 22.012C1.911 22.379 2.334 22.686 2.797 22.922C3.268 23.162 3.75 23.313 4.267 23.407C4.777 23.499 5.298 23.529 5.814 23.543C6.051 23.549 6.288 23.552 6.525 23.554C6.806 23.556 7.088 23.556 7.369 23.556H16.187C16.468 23.556 16.75 23.556 17.031 23.554C17.268 23.553 17.505 23.55 17.742 23.543C18.258 23.529 18.779 23.499 19.289 23.407C19.807 23.314 20.289 23.162 20.759 22.922C21.221 22.687 21.645 22.379 22.012 22.012C22.379 21.645 22.686 21.222 22.922 20.76C23.162 20.289 23.314 19.807 23.407 19.289C23.499 18.779 23.529 18.258 23.543 17.742C23.549 17.505 23.552 17.268 23.554 17.031C23.556 16.75 23.556 16.468 23.556 16.187V7.369C23.556 7.088 23.556 6.806 23.554 6.525Z" fill="white"/>
<path fill-rule="evenodd" clip-rule="evenodd" d="M14.404 13.513C14.126 13.513 12.501 12.634 10.98 11.193C9.77402 10.05 8.90002 8.37 8.90002 6.857C8.90002 5.487 10.047 3.896 11.899 3.896C13.704 3.896 14.101 4.869 14.403 4.869C14.645 4.869 15.124 3.896 16.907 3.896C18.864 3.896 19.906 5.646 19.906 6.857C19.906 8.37 19.098 9.988 17.826 11.193C16.346 12.596 14.682 13.513 14.404 13.513Z" fill="url(#paint0_linear_4_52)"/>
<defs>
<linearGradient id="paint0_linear_4_52" x1="14.4037" y1="3.8953" x2="14.4037" y2="13.5125" gradientUnits="userSpaceOnUse">
<stop stop-color="#FF61AD"/>
<stop offset="1" stop-color="#FF2616"/>
</linearGradient>
</defs>
</svg>
